<?xml version="1.0" encoding="iso-8859-1"?>
<!-- Generator: Adobe Illustrator 19.0.0, SVG Export Plug-In . SVG Version: 6.00 Build 0)  -->
<svg version="1.1" id="Layer_1" xmlns="http://www.w3.org/2000/svg" xmlns:xlink="http://www.w3.org/1999/xlink" x="0px" y="0px"
	 viewBox="0 0 512 512" style="enable-background:new 0 0 512 512;" xml:space="preserve">
<g>
	<g>
		<path style="fill:#E8D5B2;" d="M291.31,353.103H220.69L114.767,252.222l-0.009-75.67H70.621c-19.5,0-35.31,15.81-35.31,35.31
			v70.621V476.69c0,19.5,15.81,35.31,35.31,35.31h370.759c19.5,0,35.31-15.81,35.31-35.31V211.862c0-19.5-15.81-35.31-35.31-35.31
			h-44.138v75.661L291.31,353.103z"/>
		<path style="fill:#E8D5B2;" d="M330.081,35.31l-9.631-9.278C303.016,9.331,279.808,0,255.656,0l0,0
			c-24.832,0-48.658,9.869-66.216,27.427l-8.148,7.883H330.081z"/>
	</g>
	<polygon style="fill:#F0EDE0;" points="291.31,353.103 220.69,353.103 114.759,252.213 114.759,35.31 397.241,35.31 
		397.241,252.213 	"/>
	<g>
		<path style="fill:#D4C3A5;" d="M194.207,88.276h123.586c4.882,0,8.828-3.946,8.828-8.828c0-4.882-3.946-8.828-8.828-8.828H194.207
			c-4.882,0-8.828,3.946-8.828,8.828C185.379,84.33,189.325,88.276,194.207,88.276"/>
		<path style="fill:#D4C3A5;" d="M150.069,141.241h61.793c4.882,0,8.828-3.946,8.828-8.828c0-4.882-3.946-8.828-8.828-8.828h-61.793
			c-4.882,0-8.828,3.946-8.828,8.828C141.241,137.295,145.187,141.241,150.069,141.241"/>
		<path style="fill:#D4C3A5;" d="M238.345,132.414c0,4.882,3.946,8.828,8.828,8.828h114.759c4.882,0,8.828-3.946,8.828-8.828
			c0-4.882-3.946-8.828-8.828-8.828H247.172C242.291,123.586,238.345,127.532,238.345,132.414"/>
		<path style="fill:#D4C3A5;" d="M300.138,158.897H220.69c-4.882,0-8.828,3.946-8.828,8.828s3.946,8.828,8.828,8.828h79.448
			c4.882,0,8.828-3.946,8.828-8.828S305.02,158.897,300.138,158.897"/>
		<path style="fill:#D4C3A5;" d="M150.069,176.552h35.31c4.882,0,8.828-3.946,8.828-8.828s-3.946-8.828-8.828-8.828h-35.31
			c-4.882,0-8.828,3.946-8.828,8.828S145.187,176.552,150.069,176.552"/>
		<path style="fill:#D4C3A5;" d="M361.931,158.897h-26.483c-4.882,0-8.828,3.946-8.828,8.828s3.946,8.828,8.828,8.828h26.483
			c4.882,0,8.828-3.946,8.828-8.828S366.813,158.897,361.931,158.897"/>
		<path style="fill:#D4C3A5;" d="M300.138,194.207h-52.966c-4.882,0-8.828,3.946-8.828,8.828s3.946,8.828,8.828,8.828h52.966
			c4.882,0,8.828-3.946,8.828-8.828S305.02,194.207,300.138,194.207"/>
		<path style="fill:#D4C3A5;" d="M150.069,211.862h61.793c4.882,0,8.828-3.946,8.828-8.828s-3.946-8.828-8.828-8.828h-61.793
			c-4.882,0-8.828,3.946-8.828,8.828S145.187,211.862,150.069,211.862"/>
		<path style="fill:#D4C3A5;" d="M256,229.517h-44.138c-4.882,0-8.828,3.946-8.828,8.828c0,4.882,3.946,8.828,8.828,8.828H256
			c4.882,0,8.828-3.946,8.828-8.828C264.828,233.463,260.882,229.517,256,229.517"/>
		<path style="fill:#D4C3A5;" d="M176.552,229.517h-26.483c-4.882,0-8.828,3.946-8.828,8.828c0,4.882,3.946,8.828,8.828,8.828
			h26.483c4.882,0,8.828-3.946,8.828-8.828C185.379,233.463,181.433,229.517,176.552,229.517"/>
		<path style="fill:#D4C3A5;" d="M354.75,206.732l-37.129,51.977l-19.253-25.662c-2.922-3.911-8.457-4.687-12.35-1.766
			c-3.911,2.922-4.696,8.457-1.766,12.359l26.483,35.31c1.66,2.225,4.281,3.531,7.053,3.531h0.106
			c2.816-0.035,5.438-1.404,7.08-3.699l44.138-61.793c2.834-3.964,1.916-9.481-2.048-12.306
			C363.101,201.851,357.583,202.778,354.75,206.732"/>
	</g>
	<g>
		<path style="fill:#D1BD9D;" d="M291.31,353.103H220.69L46.53,502.387c6.312,5.914,14.751,9.613,24.09,9.613h370.759
			c9.34,0,17.779-3.699,24.09-9.613L291.31,353.103z"/>
		<path style="fill:#D1BD9D;" d="M114.759,252.216v-75.661H70.621c-9.622,0-18.326,3.866-24.691,10.108L114.759,252.216z"/>
		<path style="fill:#D1BD9D;" d="M441.379,176.552h-44.138l0,0v75.661l68.829-65.545
			C459.705,180.427,451.001,176.552,441.379,176.552"/>
	</g>
	<g>
		<path style="fill:#E8D5B2;" d="M460.77,182.391l-63.532-82.379v76.544h44.138C448.553,176.556,455.2,178.719,460.77,182.391"/>
		<path style="fill:#E8D5B2;" d="M70.621,176.552h44.138V99.681L51.147,182.44C56.726,178.732,63.417,176.552,70.621,176.552"/>
	</g>
</g>
<g>
</g>
<g>
</g>
<g>
</g>
<g>
</g>
<g>
</g>
<g>
</g>
<g>
</g>
<g>
</g>
<g>
</g>
<g>
</g>
<g>
</g>
<g>
</g>
<g>
</g>
<g>
</g>
<g>
</g>
</svg>
