<?xml version="1.0" encoding="UTF-8"?>
<svg xmlns="http://www.w3.org/2000/svg" xmlns:xlink="http://www.w3.org/1999/xlink" viewBox="0 0 50 50" width="50px" height="50px">
<g id="surface20183905">
<path style=" stroke:none;fill-rule:nonzero;fill:rgb(98.039216%,78.823531%,7.843138%);fill-opacity:1;" d="M 43.816406 1 C 43.816406 1 40.125 1.054688 35.703125 2.191406 C 31.285156 3.324219 26.039062 5.527344 22.964844 10.035156 C 22.949219 10.0625 22.933594 10.085938 22.917969 10.109375 L 17.890625 19.070312 C 17.367188 19.03125 16.824219 19.003906 16.253906 19 C 12.585938 18.988281 7.40625 19.878906 3.207031 25.394531 C 2.976562 25.695312 2.9375 26.101562 3.105469 26.445312 C 3.273438 26.785156 3.621094 27 4 27 L 5.75 27 C 8.070312 27 10.542969 27.382812 12.664062 28.394531 L 12.390625 28.878906 C 11.617188 30.246094 12.046875 32 13.363281 32.855469 L 14.628906 33.699219 C 14.265625 34.082031 13.925781 34.5 13.621094 34.960938 C 12.46875 36.703125 11.53125 39.34375 11.160156 41.898438 C 10.972656 43.175781 10.929688 44.429688 11.132812 45.558594 C 11.339844 46.691406 11.8125 47.757812 12.765625 48.40625 C 13.710938 49.058594 14.875 49.105469 15.984375 48.867188 C 17.09375 48.632812 18.21875 48.121094 19.308594 47.460938 C 21.492188 46.140625 23.535156 44.257812 24.6875 42.507812 C 24.6875 42.507812 24.6875 42.507812 24.6875 42.503906 C 25.019531 41.996094 25.296875 41.464844 25.515625 40.917969 L 26.378906 41.492188 C 26.378906 41.492188 26.378906 41.492188 26.382812 41.492188 C 27.550781 42.265625 29.085938 42.125 30.105469 41.21875 C 32.320312 43.652344 33.378906 46.523438 34.066406 48.351562 C 34.191406 48.691406 34.496094 48.9375 34.855469 48.988281 C 35.214844 49.042969 35.578125 48.894531 35.796875 48.605469 C 38.292969 45.324219 39 42.257812 39 39 C 39 36.34375 38.105469 34.136719 37.324219 32.464844 L 44.097656 24.183594 C 44.117188 24.160156 44.132812 24.136719 44.148438 24.113281 C 46.355469 20.878906 47.019531 17.039062 47 13.492188 C 46.964844 7.175781 44.765625 1.632812 44.765625 1.632812 C 44.609375 1.246094 44.234375 0.992188 43.820312 1 Z M 43.113281 3.054688 C 43.453125 3.972656 44.972656 8.242188 45 13.503906 C 45.015625 16.785156 44.390625 20.199219 42.503906 22.972656 L 28.890625 39.617188 C 28.886719 39.617188 28.886719 39.617188 28.886719 39.621094 C 28.550781 40.027344 27.9375 40.125 27.484375 39.824219 L 14.464844 31.1875 C 14.460938 31.183594 14.457031 31.183594 14.457031 31.183594 C 13.992188 30.878906 13.863281 30.335938 14.132812 29.863281 C 14.132812 29.859375 14.132812 29.859375 14.132812 29.859375 L 24.632812 11.148438 C 27.273438 7.289062 32.035156 5.195312 36.203125 4.128906 C 39.699219 3.230469 42.230469 3.089844 43.113281 3.054688 Z M 33.5 11 C 29.921875 11 27 13.921875 27 17.5 C 27 21.078125 29.921875 24 33.5 24 C 37.078125 24 40 21.078125 40 17.5 C 40 13.921875 37.078125 11 33.5 11 Z M 33.5 13 C 35.996094 13 38 15.003906 38 17.5 C 38 19.996094 35.996094 22 33.5 22 C 31.003906 22 29 19.996094 29 17.5 C 29 15.003906 31.003906 13 33.5 13 Z M 16.246094 21 C 16.433594 21 16.613281 21.011719 16.796875 21.019531 L 13.640625 26.648438 C 11.3125 25.507812 8.730469 25.113281 6.308594 25.058594 C 9.703125 21.648438 13.308594 20.988281 16.246094 21 Z M 35.902344 34.203125 C 36.488281 35.601562 37 37.203125 37 39 C 37 41.390625 36.394531 43.476562 35.105469 45.710938 C 34.363281 43.890625 33.339844 41.726562 31.414062 39.683594 Z M 16.953125 35.238281 L 23.242188 39.410156 C 22.511719 40.328125 21.210938 41.453125 19.871094 42.175781 C 19.117188 42.582031 18.363281 42.863281 17.746094 42.957031 C 17.128906 43.054688 16.703125 42.972656 16.421875 42.785156 C 16.136719 42.59375 15.902344 42.226562 15.757812 41.621094 C 15.613281 41.015625 15.589844 40.210938 15.679688 39.363281 C 15.839844 37.867188 16.382812 36.261719 16.953125 35.238281 Z M 13.632812 39.992188 C 13.605469 40.714844 13.652344 41.417969 13.808594 42.085938 C 14.027344 43.007812 14.480469 43.890625 15.304688 44.445312 C 15.304688 44.445312 15.304688 44.445312 15.308594 44.445312 C 16.128906 45 17.117188 45.082031 18.054688 44.933594 C 18.882812 44.804688 19.710938 44.496094 20.507812 44.09375 C 19.804688 44.699219 19.046875 45.285156 18.277344 45.75 C 17.316406 46.328125 16.355469 46.746094 15.570312 46.914062 C 14.785156 47.082031 14.242188 46.996094 13.894531 46.757812 C 13.542969 46.519531 13.25 46.019531 13.101562 45.203125 C 12.953125 44.386719 12.972656 43.316406 13.136719 42.1875 C 13.242188 41.460938 13.425781 40.722656 13.632812 39.992188 Z M 13.632812 39.992188 "/>
</g>
</svg>
