<?xml version="1.0" encoding="UTF-8"?>
<svg xmlns="http://www.w3.org/2000/svg" xmlns:xlink="http://www.w3.org/1999/xlink" viewBox="0 0 50 50" width="50px" height="50px">
<g id="surface20187711">
<path style=" stroke:none;fill-rule:nonzero;fill:rgb(98.039216%,78.823531%,7.843138%);fill-opacity:1;" d="M 25 3 C 24.171875 3 23.5 3.671875 23.5 4.5 C 23.5 5.328125 24.171875 6 25 6 C 25.828125 6 26.5 5.328125 26.5 4.5 C 26.5 3.671875 25.828125 3 25 3 Z M 13.5 4.078125 C 12.949219 4.078125 12.5 4.527344 12.5 5.078125 C 12.5 5.632812 12.949219 6.078125 13.5 6.078125 C 14.050781 6.078125 14.5 5.632812 14.5 5.078125 C 14.5 4.527344 14.050781 4.078125 13.5 4.078125 Z M 36.5 4.078125 C 35.949219 4.078125 35.5 4.527344 35.5 5.078125 C 35.5 5.632812 35.949219 6.078125 36.5 6.078125 C 37.050781 6.078125 37.5 5.632812 37.5 5.078125 C 37.5 4.527344 37.050781 4.078125 36.5 4.078125 Z M 16.75 9.210938 C 16.351562 9.210938 15.96875 9.367188 15.6875 9.648438 C 15.40625 9.929688 15.25 10.3125 15.25 10.710938 C 15.25 11.539062 15.921875 12.210938 16.75 12.210938 C 17.578125 12.210938 18.25 11.539062 18.25 10.710938 C 18.25 10.3125 18.09375 9.929688 17.8125 9.648438 C 17.53125 9.367188 17.148438 9.210938 16.75 9.210938 Z M 33.25 9.210938 C 32.851562 9.210938 32.46875 9.367188 32.1875 9.648438 C 31.90625 9.929688 31.75 10.3125 31.75 10.710938 C 31.75 11.539062 32.421875 12.210938 33.25 12.210938 C 34.078125 12.210938 34.75 11.539062 34.75 10.710938 C 34.75 10.3125 34.59375 9.929688 34.3125 9.648438 C 34.03125 9.367188 33.648438 9.210938 33.25 9.210938 Z M 25 10 C 23.894531 10 23 10.894531 23 12 C 23 13.105469 23.894531 14 25 14 C 26.105469 14 27 13.105469 27 12 C 27 10.894531 26.105469 10 25 10 Z M 7.246094 13.25 C 6.417969 13.25 5.746094 13.921875 5.746094 14.75 C 5.746094 15.578125 6.417969 16.25 7.246094 16.25 C 8.074219 16.25 8.746094 15.578125 8.746094 14.75 C 8.746094 13.921875 8.074219 13.25 7.246094 13.25 Z M 42.753906 13.25 C 41.925781 13.25 41.253906 13.921875 41.253906 14.75 C 41.253906 15.578125 41.925781 16.25 42.753906 16.25 C 43.582031 16.25 44.253906 15.578125 44.253906 14.75 C 44.253906 13.921875 43.582031 13.25 42.753906 13.25 Z M 21 15 C 19.355469 15 18 16.355469 18 18 C 18 19.644531 19.355469 21 21 21 C 22.644531 21 24 19.644531 24 18 C 24 16.355469 22.644531 15 21 15 Z M 29 15 C 27.355469 15 26 16.355469 26 18 C 26 19.644531 27.355469 21 29 21 C 30.644531 21 32 19.644531 32 18 C 32 16.355469 30.644531 15 29 15 Z M 13.742188 16.5 C 12.636719 16.5 11.742188 17.394531 11.742188 18.5 C 11.742188 19.605469 12.636719 20.5 13.742188 20.5 C 14.847656 20.5 15.742188 19.605469 15.742188 18.5 C 15.742188 17.394531 14.847656 16.5 13.742188 16.5 Z M 36.257812 16.5 C 35.152344 16.5 34.257812 17.394531 34.257812 18.5 C 34.257812 19.605469 35.152344 20.5 36.257812 20.5 C 37.363281 20.5 38.257812 19.605469 38.257812 18.5 C 38.257812 17.394531 37.363281 16.5 36.257812 16.5 Z M 21 17 C 21.5625 17 22 17.4375 22 18 C 22 18.5625 21.5625 19 21 19 C 20.4375 19 20 18.5625 20 18 C 20 17.4375 20.4375 17 21 17 Z M 29 17 C 29.5625 17 30 17.4375 30 18 C 30 18.5625 29.5625 19 29 19 C 28.4375 19 28 18.5625 28 18 C 28 17.4375 28.4375 17 29 17 Z M 17 22 C 15.355469 22 14 23.355469 14 25 C 14 26.644531 15.355469 28 17 28 C 18.644531 28 20 26.644531 20 25 C 20 23.355469 18.644531 22 17 22 Z M 33 22 C 31.355469 22 30 23.355469 30 25 C 30 26.644531 31.355469 28 33 28 C 34.644531 28 36 26.644531 36 25 C 36 23.355469 34.644531 22 33 22 Z M 8.5 23.5 C 7.671875 23.5 7 24.171875 7 25 C 7 25.828125 7.671875 26.5 8.5 26.5 C 9.328125 26.5 10 25.828125 10 25 C 10 24.171875 9.328125 23.5 8.5 23.5 Z M 41.5 23.5 C 40.671875 23.5 40 24.171875 40 25 C 40 25.828125 40.671875 26.5 41.5 26.5 C 42.328125 26.5 43 25.828125 43 25 C 43 24.171875 42.328125 23.5 41.5 23.5 Z M 2 24 C 1.449219 24 1 24.449219 1 25 C 1 25.550781 1.449219 26 2 26 C 2.550781 26 3 25.550781 3 25 C 3 24.449219 2.550781 24 2 24 Z M 17 24 C 17.5625 24 18 24.4375 18 25 C 18 25.5625 17.5625 26 17 26 C 16.4375 26 16 25.5625 16 25 C 16 24.4375 16.4375 24 17 24 Z M 33 24 C 33.5625 24 34 24.4375 34 25 C 34 25.5625 33.5625 26 33 26 C 32.4375 26 32 25.5625 32 25 C 32 24.4375 32.4375 24 33 24 Z M 48 24 C 47.449219 24 47 24.449219 47 25 C 47 25.550781 47.449219 26 48 26 C 48.550781 26 49 25.550781 49 25 C 49 24.449219 48.550781 24 48 24 Z M 21 29 C 19.355469 29 18 30.355469 18 32 C 18 33.644531 19.355469 35 21 35 C 22.644531 35 24 33.644531 24 32 C 24 30.355469 22.644531 29 21 29 Z M 29 29 C 27.355469 29 26 30.355469 26 32 C 26 33.644531 27.355469 35 29 35 C 30.644531 35 32 33.644531 32 32 C 32 30.355469 30.644531 29 29 29 Z M 13.742188 29.5 C 12.636719 29.5 11.742188 30.394531 11.742188 31.5 C 11.742188 32.605469 12.636719 33.5 13.742188 33.5 C 14.847656 33.5 15.742188 32.605469 15.742188 31.5 C 15.742188 30.394531 14.847656 29.5 13.742188 29.5 Z M 36.257812 29.5 C 35.152344 29.5 34.257812 30.394531 34.257812 31.5 C 34.257812 32.605469 35.152344 33.5 36.257812 33.5 C 37.363281 33.5 38.257812 32.605469 38.257812 31.5 C 38.257812 30.394531 37.363281 29.5 36.257812 29.5 Z M 21 31 C 21.5625 31 22 31.4375 22 32 C 22 32.5625 21.5625 33 21 33 C 20.4375 33 20 32.5625 20 32 C 20 31.4375 20.4375 31 21 31 Z M 29 31 C 29.5625 31 30 31.4375 30 32 C 30 32.5625 29.5625 33 29 33 C 28.4375 33 28 32.5625 28 32 C 28 31.4375 28.4375 31 29 31 Z M 7.246094 33.75 C 6.417969 33.75 5.746094 34.421875 5.746094 35.25 C 5.746094 36.078125 6.417969 36.75 7.246094 36.75 C 8.074219 36.75 8.746094 36.078125 8.746094 35.25 C 8.746094 34.421875 8.074219 33.75 7.246094 33.75 Z M 42.753906 33.75 C 41.925781 33.75 41.253906 34.421875 41.253906 35.25 C 41.253906 36.078125 41.925781 36.75 42.753906 36.75 C 43.582031 36.75 44.253906 36.078125 44.253906 35.25 C 44.253906 34.421875 43.582031 33.75 42.753906 33.75 Z M 25 36 C 23.894531 36 23 36.894531 23 38 C 23 39.105469 23.894531 40 25 40 C 26.105469 40 27 39.105469 27 38 C 27 36.894531 26.105469 36 25 36 Z M 16.75 37.789062 C 15.921875 37.789062 15.25 38.460938 15.25 39.289062 C 15.25 40.117188 15.921875 40.789062 16.75 40.789062 C 17.578125 40.789062 18.25 40.117188 18.25 39.289062 C 18.25 38.460938 17.578125 37.789062 16.75 37.789062 Z M 33.25 37.789062 C 32.421875 37.789062 31.75 38.460938 31.75 39.289062 C 31.75 40.117188 32.421875 40.789062 33.25 40.789062 C 34.078125 40.789062 34.75 40.117188 34.75 39.289062 C 34.75 38.460938 34.078125 37.789062 33.25 37.789062 Z M 13.5 43.921875 C 12.949219 43.921875 12.5 44.367188 12.5 44.921875 C 12.5 45.472656 12.949219 45.921875 13.5 45.921875 C 14.050781 45.921875 14.5 45.472656 14.5 44.921875 C 14.5 44.367188 14.050781 43.921875 13.5 43.921875 Z M 36.5 43.921875 C 35.949219 43.921875 35.5 44.367188 35.5 44.921875 C 35.5 45.472656 35.949219 45.921875 36.5 45.921875 C 37.050781 45.921875 37.5 45.472656 37.5 44.921875 C 37.5 44.367188 37.050781 43.921875 36.5 43.921875 Z M 25 44 C 24.171875 44 23.5 44.671875 23.5 45.5 C 23.5 46.328125 24.171875 47 25 47 C 25.828125 47 26.5 46.328125 26.5 45.5 C 26.5 44.671875 25.828125 44 25 44 Z M 25 44 "/>
</g>
</svg>
